ModelForces
version=1
nRows=5
nColumns=119
inDegrees=no

This file contains the forces exerted on a model during a simulation.

A force is a generalized force, meaning that it can be either a force (N) or a torque (Nm).

Units are S.I. units (second, meters, Newtons, ...)
Angles are in degrees.

endheader
time	semimem_r	semiten_r	bifemlh_r	bifemsh_r	sar_r	grac_r	rect_fem_r	vas_med_r	vas_int_r	vas_lat_r	med_gas_r	lat_gas_r	femur_lat_meniscii_l.femur_lat_l.force.X	femur_lat_meniscii_l.femur_lat_l.force.Y	femur_lat_meniscii_l.femur_lat_l.force.Z	femur_lat_meniscii_l.femur_lat_l.torque.X	femur_lat_meniscii_l.femur_lat_l.torque.Y	femur_lat_meniscii_l.femur_lat_l.torque.Z	femur_lat_meniscii_l.meniscus_lat_l.force.X	femur_lat_meniscii_l.meniscus_lat_l.force.Y	femur_lat_meniscii_l.meniscus_lat_l.force.Z	femur_lat_meniscii_l.meniscus_lat_l.torque.X	femur_lat_meniscii_l.meniscus_lat_l.torque.Y	femur_lat_meniscii_l.meniscus_lat_l.torque.Z	femur_med_meniscii_l.femur_med_l.force.X	femur_med_meniscii_l.femur_med_l.force.Y	femur_med_meniscii_l.femur_med_l.force.Z	femur_med_meniscii_l.femur_med_l.torque.X	femur_med_meniscii_l.femur_med_l.torque.Y	femur_med_meniscii_l.femur_med_l.torque.Z	femur_med_meniscii_l.meniscus_med_l.force.X	femur_med_meniscii_l.meniscus_med_l.force.Y	femur_med_meniscii_l.meniscus_med_l.force.Z	femur_med_meniscii_l.meniscus_med_l.torque.X	femur_med_meniscii_l.meniscus_med_l.torque.Y	femur_med_meniscii_l.meniscus_med_l.torque.Z	femur_lat_meniscii_r.femur_lat_r.force.X	femur_lat_meniscii_r.femur_lat_r.force.Y	femur_lat_meniscii_r.femur_lat_r.force.Z	femur_lat_meniscii_r.femur_lat_r.torque.X	femur_lat_meniscii_r.femur_lat_r.torque.Y	femur_lat_meniscii_r.femur_lat_r.torque.Z	femur_lat_meniscii_r.meniscus_lat_r.force.X	femur_lat_meniscii_r.meniscus_lat_r.force.Y	femur_lat_meniscii_r.meniscus_lat_r.force.Z	femur_lat_meniscii_r.meniscus_lat_r.torque.X	femur_lat_meniscii_r.meniscus_lat_r.torque.Y	femur_lat_meniscii_r.meniscus_lat_r.torque.Z	femur_med_meniscii_r.femur_med_r.force.X	femur_med_meniscii_r.femur_med_r.force.Y	femur_med_meniscii_r.femur_med_r.force.Z	femur_med_meniscii_r.femur_med_r.torque.X	femur_med_meniscii_r.femur_med_r.torque.Y	femur_med_meniscii_r.femur_med_r.torque.Z	femur_med_meniscii_r.meniscus_med_r.force.X	femur_med_meniscii_r.meniscus_med_r.force.Y	femur_med_meniscii_r.meniscus_med_r.force.Z	femur_med_meniscii_r.meniscus_med_r.torque.X	femur_med_meniscii_r.meniscus_med_r.torque.Y	femur_med_meniscii_r.meniscus_med_r.torque.Z	femur_med_tibia_l.tibia_upper_l.force.X	femur_med_tibia_l.tibia_upper_l.force.Y	femur_med_tibia_l.tibia_upper_l.force.Z	femur_med_tibia_l.tibia_upper_l.torque.X	femur_med_tibia_l.tibia_upper_l.torque.Y	femur_med_tibia_l.tibia_upper_l.torque.Z	femur_med_tibia_l.femur_med_l.force.X	femur_med_tibia_l.femur_med_l.force.Y	femur_med_tibia_l.femur_med_l.force.Z	femur_med_tibia_l.femur_med_l.torque.X	femur_med_tibia_l.femur_med_l.torque.Y	femur_med_tibia_l.femur_med_l.torque.Z	femur_lat_tibia_l.tibia_upper_l.force.X	femur_lat_tibia_l.tibia_upper_l.force.Y	femur_lat_tibia_l.tibia_upper_l.force.Z	femur_lat_tibia_l.tibia_upper_l.torque.X	femur_lat_tibia_l.tibia_upper_l.torque.Y	femur_lat_tibia_l.tibia_upper_l.torque.Z	femur_lat_tibia_l.femur_lat_l.force.X	femur_lat_tibia_l.femur_lat_l.force.Y	femur_lat_tibia_l.femur_lat_l.force.Z	femur_lat_tibia_l.femur_lat_l.torque.X	femur_lat_tibia_l.femur_lat_l.torque.Y	femur_lat_tibia_l.femur_lat_l.torque.Z	femur_med_tibia_r.tibia_upper_r.force.X	femur_med_tibia_r.tibia_upper_r.force.Y	femur_med_tibia_r.tibia_upper_r.force.Z	femur_med_tibia_r.tibia_upper_r.torque.X	femur_med_tibia_r.tibia_upper_r.torque.Y	femur_med_tibia_r.tibia_upper_r.torque.Z	femur_med_tibia_r.femur_med_r.force.X	femur_med_tibia_r.femur_med_r.force.Y	femur_med_tibia_r.femur_med_r.force.Z	femur_med_tibia_r.femur_med_r.torque.X	femur_med_tibia_r.femur_med_r.torque.Y	femur_med_tibia_r.femur_med_r.torque.Z	femur_lat_tibia_r.tibia_upper_r.force.X	femur_lat_tibia_r.tibia_upper_r.force.Y	femur_lat_tibia_r.tibia_upper_r.force.Z	femur_lat_tibia_r.tibia_upper_r.torque.X	femur_lat_tibia_r.tibia_upper_r.torque.Y	femur_lat_tibia_r.tibia_upper_r.torque.Z	femur_lat_tibia_r.femur_lat_r.force.X	femur_lat_tibia_r.femur_lat_r.force.Y	femur_lat_tibia_r.femur_lat_r.force.Z	femur_lat_tibia_r.femur_lat_r.torque.X	femur_lat_tibia_r.femur_lat_r.torque.Y	femur_lat_tibia_r.femur_lat_r.torque.Z	aACL_R	pACL_R	aPCL_R	pPCL_R	aMCL_R	aLCL_R	aPCL_L	pPCL_L	aMCL_L	aLCL_L
      0.00000000	     41.91816217	     20.39412272	     37.70911275	     36.02775264	      7.58999166	      7.77609968	     52.55295476	     32.37817432	     32.82159243	     40.14221532	     67.39697234	     31.74751211	      2.76307435	     50.99597937	     -9.56042239	      5.21997485	     -0.02578839	      1.48581788	     -2.76307435	    -50.99597937	      9.56042239	     -1.74637766	      0.02558040	     -0.48301696	     -3.31599387	     20.97615968	     -3.40468921	      0.94473225	     -0.02138609	     -1.00501789	      3.31599387	    -20.97615968	      3.40468921	      0.28075727	      0.00368718	     -0.29758878	      1.37659230	      2.94137022	      0.02646076	     -0.08741366	      0.03637743	      0.57528206	     -1.37659230	     -2.94137022	     -0.02646076	      0.09263995	     -0.04357327	     -0.04728596	      0.98053776	     36.96801836	      3.06418352	     -0.48391681	     -0.06913573	      0.97747711	     -0.98053776	    -36.96801836	     -3.06418352	     -0.50228318	      0.06618369	     -0.62627841	      0.00000000	      0.00000000	      0.00000000	      0.00000000	      0.00000000	      0.00000000	      0.00000000	      0.00000000	      0.00000000	      0.00000000	      0.00000000	      0.00000000	      0.00000000	      0.00000000	      0.00000000	      0.00000000	      0.00000000	      0.00000000	      0.00000000	      0.00000000	      0.00000000	      0.00000000	      0.00000000	      0.00000000	      0.00000000	      0.00000000	      0.00000000	      0.00000000	      0.00000000	      0.00000000	      0.00000000	      0.00000000	      0.00000000	      0.00000000	      0.00000000	      0.00000000	      0.00000000	      0.00000000	      0.00000000	      0.00000000	      0.00000000	      0.00000000	      0.00000000	      0.00000000	      0.00000000	      0.00000000	      0.00000000	      0.00000000	      0.56539788	      0.95352111	      0.02063132	      0.05153587	      0.02182983	      0.61577151	      0.00000000	      0.00000000	      0.00000001	      0.00000000
      0.00122146	     42.39918265	     21.96483080	     38.51683834	     43.51791459	     11.62986818	     10.11972449	     50.72937051	     28.99102000	     29.69179442	     36.52955250	     66.30912144	     31.23920071	      5.77534334	     44.70036861	     -4.99492602	      3.14267859	     -0.12227733	      2.72567909	     -5.77534334	    -44.70036861	      4.99492602	     -1.40200894	      0.13991899	     -0.55516581	     -2.37154876	     18.73837724	     -1.42840165	      0.16010052	     -0.03604046	     -0.64171334	      2.37154876	    -18.73837724	      1.42840165	      0.31324603	      0.02457944	     -0.29452570	      0.18004588	     12.21268074	     -0.20454775	     -0.23555285	      0.00698204	      0.10213218	     -0.18004588	    -12.21268074	      0.20454775	      0.37831667	     -0.00807634	     -0.04180573	     -8.29139381	     71.35624961	      3.32362204	      0.13424883	      0.12833439	     -2.50222970	      8.29139381	    -71.35624961	     -3.32362204	     -1.03996298	     -0.08243069	     -0.74276871	      0.00000000	      0.00000000	      0.00000000	      0.00000000	      0.00000000	      0.00000000	      0.00000000	      0.00000000	      0.00000000	      0.00000000	      0.00000000	      0.00000000	      0.00000000	      0.00000000	      0.00000000	      0.00000000	      0.00000000	      0.00000000	      0.00000000	      0.00000000	      0.00000000	      0.00000000	      0.00000000	      0.00000000	      0.00000000	      0.00000000	      0.00000000	      0.00000000	      0.00000000	      0.00000000	      0.00000000	      0.00000000	      0.00000000	      0.00000000	      0.00000000	      0.00000000	      0.00000000	      0.00000000	      0.00000000	      0.00000000	      0.00000000	      0.00000000	      0.00000000	      0.00000000	      0.00000000	      0.00000000	      0.00000000	      0.00000000	    -28.35387909	    -28.18652327	    -13.34125399	    -41.67228507	    -52.96273796	    -50.08246294	      0.00000000	      0.00000000	     10.29169229	     11.67000447
      0.00187224	     43.03439506	     23.74739183	     39.50455231	     51.47986593	     15.35086178	     12.53443017	     48.89378648	     25.81153969	     26.73264291	     33.05562485	     65.20624455	     30.72553720	      6.06628523	     38.78425833	     -3.53316710	      2.38580266	     -0.13583562	      2.81263054	     -6.06628523	    -38.78425833	      3.53316710	     -1.18406846	      0.15644063	     -0.52312306	     -2.03442540	     16.50740380	     -0.70426338	     -0.09327943	     -0.04066745	     -0.53780232	      2.03442540	    -16.50740380	      0.70426338	      0.29677283	      0.03145239	     -0.26602886	     -2.28275574	     28.66725250	     -0.51574208	     -0.54136069	     -0.05570943	     -0.86557643	      2.28275574	    -28.66725250	      0.51574208	      0.89015636	      0.06727952	     -0.03513084	    -17.60922035	    112.24119353	      4.17388747	      0.62277797	      0.30756876	     -5.88711857	     17.60922035	   -112.24119353	     -4.17388747	     -1.64137870	     -0.21209070	     -0.97778521	      0.00000000	      0.00000000	      0.00000000	      0.00000000	      0.00000000	      0.00000000	      0.00000000	      0.00000000	      0.00000000	      0.00000000	      0.00000000	      0.00000000	      0.00000000	      0.00000000	      0.00000000	      0.00000000	      0.00000000	      0.00000000	      0.00000000	      0.00000000	      0.00000000	      0.00000000	      0.00000000	      0.00000000	      0.00000000	      0.00000000	      0.00000000	      0.00000000	      0.00000000	      0.00000000	      0.00000000	      0.00000000	      0.00000000	      0.00000000	      0.00000000	      0.00000000	      0.00000000	      0.00000000	      0.00000000	      0.00000000	      0.00000000	      0.00000000	      0.00000000	      0.00000000	      0.00000000	      0.00000000	      0.00000000	      0.00000000	    -35.96327060	    -35.96179364	      0.00000000	    -50.80480607	      0.00000000	    -62.01282426	      0.00000000	      0.00000000	     13.63100741	     15.47790389
      0.00252303	     43.90954673	     26.01504729	     40.81054908	     61.02997766	     19.37205668	     15.38753375	     46.81753409	     22.50606941	     23.60906531	     29.34763823	     63.92800702	     30.13269830	      5.99362999	     32.42577507	     -2.62219026	      1.85110947	     -0.13715425	      2.73915415	     -5.99362999	    -32.42577507	      2.62219026	     -0.97432194	      0.15857287	     -0.47019004	     -1.74725279	     14.13420036	     -0.23340631	     -0.23624540	     -0.04146122	     -0.45947896	      1.74725279	    -14.13420036	      0.23340631	      0.26803118	      0.03398776	     -0.23102973	     -6.50460151	     57.24426279	     -0.88179075	     -1.14397737	     -0.16436897	     -2.50979351	      6.50460151	    -57.24426279	      0.88179075	      1.78341407	      0.19775814	     -0.03949932	    -29.61175574	    176.37892828	      5.44544600	      1.40763093	      0.53033075	    -10.05246171	     29.61175574	   -176.37892828	     -5.44544600	     -2.57927649	     -0.37080147	     -1.48600287	      0.00000000	      0.00000000	      0.00000000	      0.00000000	      0.00000000	      0.00000000	      0.00000000	      0.00000000	      0.00000000	      0.00000000	      0.00000000	      0.00000000	      0.00000000	      0.00000000	      0.00000000	      0.00000000	      0.00000000	      0.00000000	      0.00000000	      0.00000000	      0.00000000	      0.00000000	      0.00000000	      0.00000000	      0.00000000	      0.00000000	      0.00000000	      0.00000000	      0.00000000	      0.00000000	      0.00000000	      0.00000000	      0.00000000	      0.00000000	      0.00000000	      0.00000000	      0.00000000	      0.00000000	      0.00000000	      0.00000000	      0.00000000	      0.00000000	      0.00000000	      0.00000000	      0.00000000	      0.00000000	      0.00000000	      0.00000000	    -40.55489742	    -40.62942904	      0.00000000	      0.00000000	      0.00000000	    -72.27516386	      0.00000000	      0.00000000	     15.69747984	     17.70832776
      0.00340718	     45.54940249	     29.81895668	     43.11806647	     75.62101962	     24.91847227	     19.70834755	     44.07584560	     18.75214448	     19.91952244	     24.95359135	     62.21890338	     29.34978443	      5.48652380	     24.08432187	     -1.86129071	      1.33309481	     -0.12579694	      2.46529384	     -5.48652380	    -24.08432187	      1.86129071	     -0.71528922	      0.14607082	     -0.38185379	     -1.45861591	     11.00970744	      0.12925332	     -0.31473302	     -0.04010578	     -0.39386974	      1.45861591	    -11.00970744	     -0.12925332	      0.21956528	      0.03425686	     -0.18188531	     -7.71779115	    119.18468031	     -2.04903004	     -2.28477124	     -0.18430478	     -2.69343829	      7.71779115	   -119.18468031	      2.04903004	      3.69795100	      0.22305266	     -0.37556146	    -31.98426378	    290.20598585	      7.14843588	      3.02878020	      0.54612712	     -9.39961969	     31.98426378	   -290.20598585	     -7.14843588	     -4.25873032	     -0.37256068	     -3.14984846	      0.00000000	      0.00000000	      0.00000000	      0.00000000	      0.00000000	      0.00000000	      0.00000000	      0.00000000	      0.00000000	      0.00000000	      0.00000000	      0.00000000	      0.00000000	      0.00000000	      0.00000000	      0.00000000	      0.00000000	      0.00000000	      0.00000000	      0.00000000	      0.00000000	      0.00000000	      0.00000000	      0.00000000	      0.00000000	      0.00000000	      0.00000000	      0.00000000	      0.00000000	      0.00000000	      0.00000000	      0.00000000	      0.00000000	      0.00000000	      0.00000000	      0.00000000	      0.00000000	      0.00000000	      0.00000000	      0.00000000	      0.00000000	      0.00000000	      0.00000000	      0.00000000	      0.00000000	      0.00000000	      0.00000000	      0.00000000	      0.00000000	      0.00000000	      0.00000000	      0.00000000	      0.00000000	    -77.30541909	      0.00000000	      0.00000000	     16.88744571	     18.66248662
